<svg width="26" height="26" viewBox="0 0 26 26" fill="none" xmlns="http://www.w3.org/2000/svg">
<path d="M17.9827 0.5H7.50768C2.95768 0.5 0.245178 3.2125 0.245178 7.7625V18.225C0.245178 22.7875 2.95768 25.5 7.50768 25.5H17.9702C22.5202 25.5 25.2327 22.7875 25.2327 18.2375V7.7625C25.2452 3.2125 22.5327 0.5 17.9827 0.5ZM10.1327 18.2375C10.1327 19.0375 9.48268 19.6875 8.67018 19.6875C7.87018 19.6875 7.22018 19.0375 7.22018 18.2375V14.1625C7.22018 13.3625 7.87018 12.7125 8.67018 12.7125C9.48268 12.7125 10.1327 13.3625 10.1327 14.1625V18.2375ZM18.2702 18.2375C18.2702 19.0375 17.6202 19.6875 16.8202 19.6875C16.0077 19.6875 15.3577 19.0375 15.3577 18.2375V7.7625C15.3577 6.9625 16.0077 6.3125 16.8202 6.3125C17.6202 6.3125 18.2702 6.9625 18.2702 7.7625V18.2375Z" fill="#1AAB7B"/>
</svg>
